HIERARCHY
ROOT Hips
{
	OFFSET -3.958830 18.904000 13.208200
	CHANNELS 6 Xposition Yposition Zposition Zrotation Yrotation Xrotation 
	JOINT LHipJoint
	{
		OFFSET 0.000000 0.000000 0.000000
		CHANNELS 3 Zrotation Yrotation Xrotation
		JOINT LeftUpLeg
		{
			OFFSET 1.800000 -1.400000 0.085000
			CHANNELS 3 Zrotation Yrotation Xrotation
			JOINT LeftLeg
			{
				OFFSET 2.215000 -6.000000 0.000000
				CHANNELS 3 Zrotation Yrotation Xrotation
				JOINT LeftFoot
				{
					OFFSET 2.500000 -6.900000 0.000000
					CHANNELS 3 Zrotation Yrotation Xrotation
					JOINT LeftToeBase
					{
						OFFSET 0.200000 -0.500000 1.950000
						CHANNELS 3 Zrotation Yrotation Xrotation
						End Site
						{
							OFFSET 0.000000 0.000000 0.000000
						}
					}
				}
			}
		}
	}
	JOINT RHipJoint
	{
		OFFSET 0.000000 0.000000 0.000000
		CHANNELS 3 Zrotation Yrotation Xrotation
		JOINT RightUpLeg
		{
			OFFSET -1.800000 -1.400000 0.085000
			CHANNELS 3 Zrotation Yrotation Xrotation
			JOINT RightLeg
			{
				OFFSET -2.215000 -6.000000 0.000000
				CHANNELS 3 Zrotation Yrotation Xrotation
				JOINT RightFoot
				{
					OFFSET -2.500000 -6.900000 0.000000
					CHANNELS 3 Zrotation Yrotation Xrotation
					JOINT RightToeBase
					{
						OFFSET -0.200000 -0.500000 1.950000
						CHANNELS 3 Zrotation Yrotation Xrotation
						End Site
						{
							OFFSET 0.000000 0.000000 0.000000
						}
					}
				}
			}
		}
	}
	JOINT LowerBack
	{
		OFFSET 0.000000 0.000000 0.000000
		CHANNELS 3 Zrotation Yrotation Xrotation
		JOINT Spine
		{
			OFFSET -0.087000 1.940000 -0.288900
			CHANNELS 3 Zrotation Yrotation Xrotation
			JOINT Spine1
			{
				OFFSET 0.000000 1.950000 0.060000
				CHANNELS 3 Zrotation Yrotation Xrotation
				JOINT Neck
				{
					OFFSET 0.000000 0.000000 0.000000
					CHANNELS 3 Zrotation Yrotation Xrotation
					JOINT Neck1
					{
						OFFSET 0.000000 1.600000 0.340000
						CHANNELS 3 Zrotation Yrotation Xrotation
						JOINT Head
						{
							OFFSET 0.000000 1.667000 -0.240000
							CHANNELS 3 Zrotation Yrotation Xrotation
							End Site
							{
								OFFSET 0.000000 0.000000 0.000000
							}
						}
					}
				}
				JOINT LeftShoulder
				{
					OFFSET 0.000000 0.000000 0.000000
					CHANNELS 3 Zrotation Yrotation Xrotation
					JOINT LeftArm
					{
						OFFSET 2.700000 1.550000 -0.730000
						CHANNELS 3 Zrotation Yrotation Xrotation
						JOINT LeftForeArm
						{
							OFFSET 5.450000 0.000000 0.000000
							CHANNELS 3 Zrotation Yrotation Xrotation
							JOINT LeftHand
							{
								OFFSET 3.450000 0.000000 0.000000
								CHANNELS 3 Zrotation Yrotation Xrotation
								JOINT LeftHandIndex1
								{
									OFFSET 0.750000 0.000000 0.000000
									CHANNELS 3 Zrotation Yrotation Xrotation
									End Site
									{
										OFFSET 0.000000 0.000000 0.000000
									}
								}
							}
						}
					}
				}
				JOINT RightShoulder
				{
					OFFSET 0.000000 0.000000 0.000000
					CHANNELS 3 Zrotation Yrotation Xrotation
					JOINT RightArm
					{
						OFFSET -2.700000 1.550000 -0.730000
						CHANNELS 3 Zrotation Yrotation Xrotation
						JOINT RightForeArm
						{
							OFFSET -5.450000 0.000000 0.000000
							CHANNELS 3 Zrotation Yrotation Xrotation
							JOINT RightHand
							{
								OFFSET -3.450000 0.000000 0.000000
								CHANNELS 3 Zrotation Yrotation Xrotation
								JOINT RightHandIndex1
								{
									OFFSET -0.750000 0.000000 0.000000
									CHANNELS 3 Zrotation Yrotation Xrotation
									End Site
									{
										OFFSET 0.000000 0.000000 0.000000
									}
								}
							}
						}
					}
				}
			}
		}
	}
}
MOTION
Frames: 10
Frame Time: 0.016667
0.378720 15.548840 -2.190870 -3.628661 1.209801 -10.950437 -15.633907 10.575320 4.859040 15.041263 -7.461600 -45.855731 3.528709 15.359356 75.109019 0.810896 13.947115 -0.239632 1.489430 1.145080 1.113870 18.529620 -7.826445 4.227979 2.747146 16.173272 -38.045931 -8.389135 -9.386433 87.427866 -2.728587 -13.430346 0.109321 0.906400 0.241760 0.487340 -3.315053 -2.172685 -9.510553 3.587523 1.026735 41.150751 -0.537062 4.421790 17.742091 -1.338401 0.446443 -3.702314 -2.304181 2.507047 46.511487 -0.902310 2.381940 -11.277600 19.360911 -33.977603 -9.924961 -1.757292 -47.366264 4.485875 7.959856 -18.948996 -1.509276 -4.029199 3.121561 0.409420 0.338200 0.017870 0.411770 -17.226057 37.635981 -3.660941 8.211421 43.079783 7.106866 -9.508327 8.765480 -2.271380 2.126032 -1.771127 -0.013830 0.290890 -0.422600 -0.293800 
0.456060 15.540420 -2.175730 -2.885100 -3.575929 -10.093032 -15.539329 10.144572 5.132191 18.743079 -6.154451 -45.207175 -2.953703 20.980775 73.940260 1.063026 14.701227 -0.462749 1.456770 1.096490 1.146100 18.638484 -7.983743 4.175071 2.464543 16.370160 -37.964262 -11.117451 -6.368412 86.316947 -2.679057 -12.974234 0.244638 0.812100 0.133450 0.458920 -3.676942 -1.291677 -9.639942 6.731868 0.286279 41.126878 -4.137626 4.687826 16.548810 0.295037 -1.147077 -5.009970 -4.812745 3.837749 49.068766 -1.487500 2.287750 -12.980580 16.425620 -33.214487 -5.464964 0.785913 -43.535208 1.722035 9.610047 -21.231465 -1.898315 -3.891707 3.013938 0.496090 0.236760 0.100940 0.373430 -17.457528 36.216097 -4.548393 8.151717 42.640438 5.430508 -8.621200 20.390659 -1.900006 1.874499 -1.696157 0.012460 0.267490 -0.437520 -0.314020 
0.525320 15.520630 -2.136030 -3.106425 -7.972547 -8.210518 -15.519122 9.487473 5.686867 24.547834 -4.530432 -45.355791 -10.246080 27.214291 72.121890 1.457461 15.588299 -0.660663 1.410850 1.010130 1.184020 18.733231 -7.908240 4.092801 1.832578 16.355495 -39.256772 -12.550648 -5.110290 85.132163 -2.632687 -12.715531 0.311433 0.686600 0.033160 0.479310 -3.959195 -0.537132 -9.891502 9.950614 -0.635700 39.216885 -6.769582 4.709864 15.480318 2.006278 -1.623442 -6.237672 -5.328695 4.262143 50.663999 -3.263830 2.577380 -12.465910 13.329549 -31.572730 -1.598078 0.989570 -40.428785 0.776943 11.889486 -20.931309 -2.389996 -3.821727 3.013534 0.505100 0.179080 0.153440 0.343060 -17.569928 33.811987 -4.337999 9.030652 40.922533 0.718507 -8.642183 36.905857 -2.468418 1.607771 -1.828330 0.077430 0.155920 -0.475750 -0.323280 
0.587620 15.512830 -2.085660 -3.296878 -11.310586 -6.028295 -15.544640 8.915486 6.180971 29.768236 -2.889158 -45.409801 -15.669379 31.954227 70.224874 1.785780 16.098503 -0.748992 1.366100 0.933620 1.207210 18.792461 -7.718398 4.058081 -1.337135 16.140777 -42.418088 -10.594868 -7.409459 84.404821 -2.574187 -12.713570 0.269984 0.582700 -0.059270 0.524650 -4.147517 -0.053399 -10.134510 12.428972 -1.375304 36.602165 -8.278040 4.400863 14.787096 3.359105 -1.514748 -7.215674 -4.511583 4.286696 50.446569 -5.527230 3.290810 -10.609410 11.133727 -29.160563 1.420599 -0.840650 -36.901725 1.346529 10.733530 -21.131658 -1.941711 -3.764362 3.093383 0.457090 0.158070 0.175630 0.308880 -17.822930 30.831029 -3.637060 11.319697 39.012902 -3.261772 -7.880971 52.142668 -3.783739 1.472908 -2.009377 0.157620 -0.008200 -0.514190 -0.324540 
0.617620 15.519470 -2.001320 -3.359565 -14.603446 -4.073283 -15.557003 8.580164 6.422048 34.069620 -0.889792 -44.071468 -18.730554 34.895857 68.058539 2.033569 16.184829 -0.656209 1.224240 0.749600 1.135770 18.836647 -7.539755 4.130939 -5.875187 15.879133 -45.580700 -6.296825 -11.792130 83.848655 -2.553306 -12.938452 0.243014 0.414890 -0.043790 0.512360 -4.346585 0.252168 -10.326393 14.219668 -1.931510 33.517945 -9.632642 3.866961 14.432941 4.009124 -1.531134 -9.303552 -4.311667 4.919364 51.870704 -6.380380 4.168680 -7.302630 8.820818 -27.660449 4.653974 -3.026844 -30.634227 1.259718 7.588616 -22.807926 -1.054790 -3.677803 3.092350 0.433860 0.152430 0.154460 0.309230 -16.667755 29.241864 -1.664958 14.896209 37.133420 -6.400371 -9.396665 64.701249 -7.140996 1.425516 -2.002663 0.164790 -0.066360 -0.512500 -0.302120 
0.663720 15.550940 -1.891200 -3.692347 -16.907253 -2.671201 -15.554414 8.518827 6.324138 36.830463 0.243418 -41.961489 -17.794355 35.082671 67.727582 2.058781 16.073985 -0.616490 1.131760 0.642340 1.069800 18.867267 -7.371161 4.275928 -12.115034 14.609953 -48.572956 0.177186 -18.488929 82.959412 -2.651899 -13.666576 0.059824 0.314260 -0.013510 0.538350 -4.517939 0.237747 -10.353860 15.976589 -3.224107 30.834746 -10.322145 2.179254 14.487680 4.216201 -2.277554 -10.030039 -5.293413 6.334426 49.892322 -7.176650 4.836730 -6.848240 7.142467 -24.191710 6.710518 -8.529638 -24.462210 1.016467 6.672040 -25.946278 -1.101797 -3.635833 3.142525 0.421580 0.171500 0.134640 0.281440 -15.320557 26.171051 -0.302593 19.801847 36.322701 -7.384966 -10.305146 77.649949 -11.899694 1.378103 -1.902571 0.182410 -0.099370 -0.459290 -0.285350 
0.705100 15.587470 -1.768930 -3.812621 -18.959795 -1.282451 -15.509806 8.589321 5.902261 37.688099 0.830756 -39.538876 -13.750675 33.281619 68.796093 2.110348 15.821963 -0.512360 1.010720 0.509050 0.964780 18.912484 -7.254245 4.610281 -19.186146 12.525339 -50.913676 8.661538 -25.835939 79.442890 -2.754139 -14.486051 -0.127219 0.196870 0.024160 0.558390 -4.760236 0.277471 -10.293161 18.166126 -4.205740 27.405244 -11.389020 0.539351 14.730621 4.584581 -2.632991 -10.807745 -5.682929 6.949623 47.962237 -8.725930 5.839210 -3.161950 5.575947 -19.913968 7.584319 -14.913227 -18.906935 0.668852 4.492048 -28.411800 -0.757379 -3.630461 3.281766 0.333990 0.222230 0.073680 0.279670 -14.414412 21.930947 1.780910 28.939991 33.813436 -8.842210 131.734486 87.206240 125.764304 1.353068 -0.137978 0.212500 -0.195470 -0.438140 -0.249070 
0.729270 15.615830 -1.631130 -3.946615 -20.845291 -0.657801 -15.476248 8.945364 5.160738 37.354414 1.103643 -36.293906 -7.364608 29.461497 70.511401 2.064147 15.367504 -0.339208 0.903070 0.332810 0.906810 18.920747 -7.096145 5.127672 -26.336560 10.082500 -51.821292 19.348528 -33.128557 73.286187 -2.864568 -15.058450 -0.263751 0.090570 0.073840 0.594690 -4.885531 -0.018867 -10.119787 19.749158 -5.290653 24.586030 -12.319579 -1.046646 16.032192 5.073907 -2.718845 -12.099461 -5.630538 7.782046 44.662006 -10.563440 7.818250 1.148270 4.538262 -14.217286 6.780189 -22.392913 -13.561198 -0.805517 3.927939 -31.632480 -0.922062 -3.642773 3.427744 0.288160 0.276270 0.011120 0.297720 -14.425812 16.773158 6.361845 38.278251 32.460097 -0.802612 -160.959698 75.725478 -172.863027 1.615196 -2.557139 0.192290 -0.288870 -0.434630 -0.247330 
0.744240 15.613110 -1.496440 -4.046514 -22.743147 0.393990 -15.406611 9.432333 4.206647 36.040275 1.180669 -32.873198 -0.127124 24.063710 71.144041 1.986753 14.509365 -0.036033 0.714940 0.110490 0.762260 18.957069 -7.070738 5.737670 -32.558363 7.394027 -52.761896 30.816323 -38.163310 64.558057 -2.775611 -14.774758 -0.152284 -0.053970 0.185890 0.576850 -5.063730 -0.206707 -9.890697 21.355564 -6.371270 21.996783 -13.246513 -2.677808 15.533252 5.258052 -3.379645 -12.982628 -6.203845 9.530973 40.885159 -10.711480 10.247130 6.382190 3.626936 -8.003336 5.746702 -30.498197 -6.964346 -3.334548 3.274546 -35.408843 -0.959616 -3.671205 3.569301 0.208890 0.340900 -0.092310 0.306460 -13.952351 11.379670 9.021023 52.669493 28.619406 3.409813 -168.225037 67.620352 177.366697 1.776432 -2.614090 0.151170 -0.334320 -0.389370 -0.209840 
0.752590 15.611940 -1.346650 -4.858614 -24.588455 1.217396 -15.291114 10.244113 3.136415 34.643897 1.250557 -28.014507 6.596673 17.448281 68.005474 1.757317 13.039457 0.405286 0.616910 -0.031150 0.681790 18.985197 -7.314726 6.163951 -37.648883 4.663169 -51.219803 44.739239 -40.208702 51.791875 -2.563859 -13.492835 0.231003 -0.179820 0.211760 0.547980 -5.198986 -0.503498 -9.516329 24.454880 -7.577875 20.242557 -14.070853 -3.990935 13.238065 5.555449 -4.724257 -13.452306 -8.568708 11.021410 38.819387 -11.112050 11.618430 9.174480 1.266065 -2.037205 4.588090 -37.482478 0.032396 -6.406228 1.603584 -36.647812 -0.665458 -3.611160 3.626857 0.241690 0.309460 -0.103510 0.338010 -12.428529 6.681009 10.702033 64.614096 19.906952 5.245104 -176.420950 59.254114 165.632291 1.905117 -2.702422 0.130340 -0.351330 -0.387490 -0.185950 
